<?xml version="1.0" encoding="UTF-8"?>
<!DOCTYPE svg PUBLIC "-//W3C//DTD SVG 1.1//EN" "http://www.w3.org/Graphics/SVG/1.1/DTD/svg11.dtd">
<svg xmlns="http://www.w3.org/2000/svg" version="1.1" width="192px" height="192px" style="shape-rendering:geometricPrecision; text-rendering:geometricPrecision; image-rendering:optimizeQuality; fill-rule:evenodd; clip-rule:evenodd" xmlns:xlink="http://www.w3.org/1999/xlink">
<g><path style="opacity:0.838" fill="#030207" d="M 191.5,92.5 C 191.5,94.5 191.5,96.5 191.5,98.5C 180.249,117.333 169.249,136.333 158.5,155.5C 156.234,159.458 153.901,163.458 151.5,167.5C 149.598,171.108 147.598,174.775 145.5,178.5C 112.167,179.833 78.8333,179.833 45.5,178.5C 30.7775,151.886 15.4442,125.219 -0.5,98.5C -0.5,96.5 -0.5,94.5 -0.5,92.5C 10.7512,73.6668 21.7512,54.6668 32.5,35.5C 34.7656,31.5423 37.099,27.5423 39.5,23.5C 41.4019,19.8921 43.4019,16.2254 45.5,12.5C 78.8333,11.1667 112.167,11.1667 145.5,12.5C 160.222,39.1141 175.556,65.7808 191.5,92.5 Z"/></g>
<g><path style="opacity:1" fill="#2e3163" d="M 47.5,17.5 C 79.5,17.5 111.5,17.5 143.5,17.5C 143.343,18.8734 143.51,20.2068 144,21.5C 156.333,42.8333 168.667,64.1667 181,85.5C 184.333,92.1667 184.333,98.8333 181,105.5C 168.667,126.833 156.333,148.167 144,169.5C 143.51,170.793 143.343,172.127 143.5,173.5C 111.5,173.5 79.5,173.5 47.5,173.5C 47.6567,172.127 47.49,170.793 47,169.5C 34.6667,148.167 22.3333,126.833 10,105.5C 6.66667,98.8333 6.66667,92.1667 10,85.5C 22.3333,64.1667 34.6667,42.8333 47,21.5C 47.49,20.2068 47.6567,18.8734 47.5,17.5 Z"/></g>
<g><path style="opacity:1" fill="#1f914d" d="M 159.5,134.5 C 155.988,135.055 152.988,134.388 150.5,132.5C 155.894,122.049 161.56,111.715 167.5,101.5C 168.906,101.027 169.573,100.027 169.5,98.5C 170.396,95.873 170.23,93.2064 169,90.5C 156.769,70.5331 144.935,50.3664 133.5,30C 108.167,29.3333 82.8333,29.3333 57.5,30C 46.0244,49.7883 34.6911,69.6217 23.5,89.5C 22.8333,89.5 22.5,89.8333 22.5,90.5C 20.0617,93.2244 19.895,96.2244 22,99.5C 28.4667,110.433 34.6334,121.433 40.5,132.5C 38.0122,134.388 35.0122,135.055 31.5,134.5C 29.5305,132.353 27.6971,130.02 26,127.5C 20.2411,116.924 14.7411,106.257 9.5,95.5C 11.2017,89.1354 14.2017,83.4688 18.5,78.5C 27.2911,63.0861 35.9577,47.5861 44.5,32C 44.1667,31.6667 43.8333,31.3333 43.5,31C 46.7661,28.5607 49.0995,25.394 50.5,21.5C 80.5,20.1667 110.5,20.1667 140.5,21.5C 153.838,45.3187 167.338,68.9853 181,92.5C 181.667,94.5 181.667,96.5 181,98.5C 174.831,107.678 169.498,117.345 165,127.5C 163.303,130.02 161.47,132.353 159.5,134.5 Z"/></g>
<g><path style="opacity:0.004" fill="#000000" d="M 39.5,23.5 C 38.8333,22.1667 38.8333,22.1667 39.5,23.5 Z"/></g>
<g><path style="opacity:1" fill="#313269" d="M 169.5,98.5 C 168.549,97.0813 168.216,95.4147 168.5,93.5C 167.041,93.5674 165.708,93.2341 164.5,92.5C 161.833,91.5 159.167,90.5 156.5,89.5C 154.597,89.2041 152.93,88.5375 151.5,87.5C 149.824,85.1663 147.491,84.1663 144.5,84.5C 142.824,82.1663 140.491,81.1663 137.5,81.5C 136.22,80.0687 134.553,79.4021 132.5,79.5C 131.235,78.5207 129.901,77.5207 128.5,76.5C 127.893,76.6236 127.56,76.9569 127.5,77.5C 124.702,76.9 122.035,75.9 119.5,74.5C 118.167,77.5 118.167,80.5 119.5,83.5C 127.833,87 136.167,90.5 144.5,94C 136.167,97.5 127.833,101 119.5,104.5C 118.167,107.5 118.167,110.5 119.5,113.5C 120.86,112.82 122.193,112.153 123.5,111.5C 123.201,113.604 123.534,115.604 124.5,117.5C 125.417,116.873 126.417,116.539 127.5,116.5C 127.369,117.376 127.702,118.043 128.5,118.5C 141.313,112.598 154.313,106.931 167.5,101.5C 161.56,111.715 155.894,122.049 150.5,132.5C 146.079,142.001 141.079,151.334 135.5,160.5C 108.833,161.833 82.1667,161.833 55.5,160.5C 49.921,151.334 44.921,142.001 40.5,132.5C 34.6334,121.433 28.4667,110.433 22,99.5C 19.895,96.2244 20.0617,93.2244 22.5,90.5C 22.3367,92.8568 22.5034,95.1902 23,97.5C 24.8761,98.6087 26.7095,99.6087 28.5,100.5C 40.1842,106.401 52.1842,111.734 64.5,116.5C 68.1029,119.931 69.7696,119.098 69.5,114C 69.6662,110.798 68.3329,108.631 65.5,107.5C 64.0413,107.567 62.7079,107.234 61.5,106.5C 60.6521,104.907 59.3187,103.74 57.5,103C 52.1926,101.295 47.1926,99.1288 42.5,96.5C 51.3512,93.2179 60.0178,89.5513 68.5,85.5C 69.8333,82.5 69.8333,79.5 68.5,76.5C 67.2613,76.9424 66.2613,77.6091 65.5,78.5C 64.1667,78.8333 62.8333,79.1667 61.5,79.5C 61.7852,77.712 61.4519,76.0453 60.5,74.5C 48.2587,79.7894 35.9254,84.7894 23.5,89.5C 34.6911,69.6217 46.0244,49.7883 57.5,30C 82.8333,29.3333 108.167,29.3333 133.5,30C 144.935,50.3664 156.769,70.5331 169,90.5C 170.23,93.2064 170.396,95.873 169.5,98.5 Z"/></g>
<g><path style="opacity:0.004" fill="#000000" d="M 32.5,35.5 C 31.8333,34.1667 31.8333,34.1667 32.5,35.5 Z"/></g>
<g><path style="opacity:1" fill="#f3f7f5" d="M 109.5,71.5 C 109.5,74.8333 109.5,78.1667 109.5,81.5C 109.44,82.0431 109.107,82.3764 108.5,82.5C 106.757,80.9617 104.757,79.9617 102.5,79.5C 102.5,78.8333 102.167,78.5 101.5,78.5C 92.7832,74.437 86.9498,77.1037 84,86.5C 83.0229,91.7339 83.6896,96.7339 86,101.5C 86.7083,102.381 87.5416,103.047 88.5,103.5C 89.6594,105.25 91.326,106.25 93.5,106.5C 99.292,106.436 104.292,104.436 108.5,100.5C 109.452,102.045 109.785,103.712 109.5,105.5C 109.5,106.5 109.5,107.5 109.5,108.5C 109.5,109.5 109.5,110.5 109.5,111.5C 101.714,114.533 93.7141,115.199 85.5,113.5C 78.5101,111.342 74.0101,106.675 72,99.5C 69.3386,77.1622 79.1719,66.9955 101.5,69C 104.279,69.561 106.946,70.3944 109.5,71.5 Z"/></g>
<g><path style="opacity:1" fill="#4f968f" d="M 109.5,71.5 C 110.833,71.8333 112.167,72.1667 113.5,72.5C 113.5,75.8333 113.5,79.1667 113.5,82.5C 112.167,82.1667 110.833,81.8333 109.5,81.5C 109.5,78.1667 109.5,74.8333 109.5,71.5 Z"/></g>
<g><path style="opacity:1" fill="#22625a" d="M 113.5,72.5 C 114.708,73.2341 116.041,73.5674 117.5,73.5C 117.824,77.5546 117.491,81.5546 116.5,85.5C 115.145,84.8118 114.145,83.8118 113.5,82.5C 113.5,79.1667 113.5,75.8333 113.5,72.5 Z"/></g>
<g><path style="opacity:1" fill="#549b92" d="M 101.5,78.5 C 91.2847,78.5493 86.2847,83.716 86.5,94C 86.4226,97.3583 87.0893,100.525 88.5,103.5C 87.5416,103.047 86.7083,102.381 86,101.5C 83.6896,96.7339 83.0229,91.7339 84,86.5C 86.9498,77.1037 92.7832,74.437 101.5,78.5 Z"/></g>
<g><path style="opacity:1" fill="#23605b" d="M 42.5,96.5 C 41.8333,96.5 41.1667,96.5 40.5,96.5C 43.0282,94.2197 46.0282,92.3864 49.5,91C 54.607,88.4645 59.9403,86.6312 65.5,85.5C 65.5,83.1667 65.5,80.8333 65.5,78.5C 66.2613,77.6091 67.2613,76.9424 68.5,76.5C 69.8333,79.5 69.8333,82.5 68.5,85.5C 60.0178,89.5513 51.3512,93.2179 42.5,96.5 Z"/></g>
<g><path style="opacity:1" fill="#43817c" d="M 132.5,79.5 C 130.447,79.5979 128.78,78.9313 127.5,77.5C 127.56,76.9569 127.893,76.6236 128.5,76.5C 129.901,77.5207 131.235,78.5207 132.5,79.5 Z"/></g>
<g><path style="opacity:1" fill="#25675e" d="M 101.5,78.5 C 102.167,78.5 102.5,78.8333 102.5,79.5C 96.3453,80.1542 92.512,83.4875 91,89.5C 89.9951,95.4624 90.8285,101.129 93.5,106.5C 91.326,106.25 89.6594,105.25 88.5,103.5C 87.0893,100.525 86.4226,97.3583 86.5,94C 86.2847,83.716 91.2847,78.5493 101.5,78.5 Z"/></g>
<g><path style="opacity:1" fill="#559b90" d="M 65.5,78.5 C 65.5,80.8333 65.5,83.1667 65.5,85.5C 59.9403,86.6312 54.607,88.4645 49.5,91C 46.0282,92.3864 43.0282,94.2197 40.5,96.5C 38.7446,95.9278 37.0779,95.0945 35.5,94C 44.1556,90.1618 52.8222,86.6618 61.5,83.5C 61.5,82.1667 61.5,80.8333 61.5,79.5C 62.8333,79.1667 64.1667,78.8333 65.5,78.5 Z"/></g>
<g><path style="opacity:1" fill="#f3f7f5" d="M 61.5,79.5 C 61.5,80.8333 61.5,82.1667 61.5,83.5C 52.8222,86.6618 44.1556,90.1618 35.5,94C 37.0779,95.0945 38.7446,95.9278 40.5,96.5C 41.1667,96.5 41.8333,96.5 42.5,96.5C 47.1926,99.1288 52.1926,101.295 57.5,103C 59.3187,103.74 60.6521,104.907 61.5,106.5C 61.8076,108.924 61.4742,111.257 60.5,113.5C 49.9698,108.769 39.3032,104.436 28.5,100.5C 26.7095,99.6087 24.8761,98.6087 23,97.5C 22.5034,95.1902 22.3367,92.8568 22.5,90.5C 22.5,89.8333 22.8333,89.5 23.5,89.5C 35.9254,84.7894 48.2587,79.7894 60.5,74.5C 61.4519,76.0453 61.7852,77.712 61.5,79.5 Z"/></g>
<g><path style="opacity:1" fill="#35676d" d="M 137.5,81.5 C 140.491,81.1663 142.824,82.1663 144.5,84.5C 141.843,84.0652 139.509,83.0652 137.5,81.5 Z"/></g>
<g><path style="opacity:1" fill="#38676e" d="M 144.5,84.5 C 147.491,84.1663 149.824,85.1663 151.5,87.5C 148.843,87.0652 146.509,86.0652 144.5,84.5 Z"/></g>
<g><path style="opacity:1" fill="#539990" d="M 156.5,89.5 C 159.167,90.5 161.833,91.5 164.5,92.5C 164.5,95.1667 164.5,97.8333 164.5,100.5C 152.004,105.253 139.67,110.253 127.5,115.5C 127.5,113.833 127.5,112.167 127.5,110.5C 136.86,105.871 146.527,101.704 156.5,98C 157.786,95.1684 157.786,92.3351 156.5,89.5 Z"/></g>
<g><path style="opacity:1" fill="#23625c" d="M 164.5,92.5 C 165.708,93.2341 167.041,93.5674 168.5,93.5C 168.216,95.4147 168.549,97.0813 169.5,98.5C 169.573,100.027 168.906,101.027 167.5,101.5C 154.313,106.931 141.313,112.598 128.5,118.5C 127.702,118.043 127.369,117.376 127.5,116.5C 127.5,116.167 127.5,115.833 127.5,115.5C 139.67,110.253 152.004,105.253 164.5,100.5C 164.5,97.8333 164.5,95.1667 164.5,92.5 Z"/></g>
<g><path style="opacity:1" fill="#f1f4f3" d="M 127.5,77.5 C 128.78,78.9313 130.447,79.5979 132.5,79.5C 134.553,79.4021 136.22,80.0687 137.5,81.5C 139.509,83.0652 141.843,84.0652 144.5,84.5C 146.509,86.0652 148.843,87.0652 151.5,87.5C 152.93,88.5375 154.597,89.2041 156.5,89.5C 157.786,92.3351 157.786,95.1684 156.5,98C 146.527,101.704 136.86,105.871 127.5,110.5C 126.167,110.833 124.833,111.167 123.5,111.5C 122.193,112.153 120.86,112.82 119.5,113.5C 118.167,110.5 118.167,107.5 119.5,104.5C 127.833,101 136.167,97.5 144.5,94C 136.167,90.5 127.833,87 119.5,83.5C 118.167,80.5 118.167,77.5 119.5,74.5C 122.035,75.9 124.702,76.9 127.5,77.5 Z"/></g>
<g><path style="opacity:1" fill="#696b9e" d="M 113.5,106.5 C 113.5,106.833 113.5,107.167 113.5,107.5C 112.167,107.833 110.833,108.167 109.5,108.5C 109.5,107.5 109.5,106.5 109.5,105.5C 110.482,104.859 111.482,104.193 112.5,103.5C 113.386,104.325 113.719,105.325 113.5,106.5 Z"/></g>
<g><path style="opacity:1" fill="#23625b" d="M 97.5,118.5 C 102.769,118.401 107.769,117.234 112.5,115C 113.435,112.619 113.768,110.119 113.5,107.5C 113.5,107.167 113.5,106.833 113.5,106.5C 114.482,105.859 115.482,105.193 116.5,104.5C 120.007,113.017 117.34,117.85 108.5,119C 104.642,119.81 100.976,119.643 97.5,118.5 Z"/></g>
<g><path style="opacity:1" fill="#519790" d="M 113.5,107.5 C 113.768,110.119 113.435,112.619 112.5,115C 107.769,117.234 102.769,118.401 97.5,118.5C 92.5129,119.001 88.5129,117.335 85.5,113.5C 93.7141,115.199 101.714,114.533 109.5,111.5C 109.5,110.5 109.5,109.5 109.5,108.5C 110.833,108.167 112.167,107.833 113.5,107.5 Z"/></g>
<g><path style="opacity:1" fill="#589493" d="M 28.5,100.5 C 39.3032,104.436 49.9698,108.769 60.5,113.5C 61.4742,111.257 61.8076,108.924 61.5,106.5C 62.7079,107.234 64.0413,107.567 65.5,107.5C 65.81,110.713 65.4767,113.713 64.5,116.5C 52.1842,111.734 40.1842,106.401 28.5,100.5 Z"/></g>
<g><path style="opacity:1" fill="#245c5b" d="M 65.5,107.5 C 68.3329,108.631 69.6662,110.798 69.5,114C 69.7696,119.098 68.1029,119.931 64.5,116.5C 65.4767,113.713 65.81,110.713 65.5,107.5 Z"/></g>
<g><path style="opacity:1" fill="#68689d" d="M 127.5,110.5 C 127.5,112.167 127.5,113.833 127.5,115.5C 127.5,115.833 127.5,116.167 127.5,116.5C 126.417,116.539 125.417,116.873 124.5,117.5C 123.534,115.604 123.201,113.604 123.5,111.5C 124.833,111.167 126.167,110.833 127.5,110.5 Z"/></g>
<g><path style="opacity:1" fill="#297a53" d="M 40.5,132.5 C 44.921,142.001 49.921,151.334 55.5,160.5C 68.4829,161.833 81.8162,162.499 95.5,162.5C 109.184,162.499 122.517,161.833 135.5,160.5C 141.079,151.334 146.079,142.001 150.5,132.5C 152.988,134.388 155.988,135.055 159.5,134.5C 153.598,146.818 147.265,158.485 140.5,169.5C 110.5,170.833 80.5,170.833 50.5,169.5C 43.7251,158.013 37.3918,146.346 31.5,134.5C 35.0122,135.055 38.0122,134.388 40.5,132.5 Z"/></g>
<g><path style="opacity:0.004" fill="#000000" d="M 158.5,155.5 C 159.833,156.167 159.833,156.167 158.5,155.5 Z"/></g>
<g><path style="opacity:1" fill="#304468" d="M 55.5,160.5 C 82.1667,161.833 108.833,161.833 135.5,160.5C 122.517,161.833 109.184,162.499 95.5,162.5C 81.8162,162.499 68.4829,161.833 55.5,160.5 Z"/></g>
<g><path style="opacity:0.004" fill="#000000" d="M 151.5,167.5 C 152.833,168.167 152.833,168.167 151.5,167.5 Z"/></g>
</svg>
